# xmcd CD database file
#
# Track frame offsets:
#	150
#	21081
#	72610
#	105258
#	130674
#	159275
#	185690
#	226316
#
# Disc length: 3555 seconds
#
# Revision: 0
# Processed by: cddbd v1.5.1PL2 Copyright (c) Steve Scherf et al.
# Submitted via: CDex 1.51
#
DISCID=5f0de108
DTITLE=Lenard Gilissen, Frank Jacobs, Jan van ooren, Leon Hoeben - JazzMinded!
DYEAR=2005
DGENRE=Jazz
TTITLE0=Nostalgia in timesquare
TTITLE1=Blue bossa
TTITLE2=Angel eyes- mmv Linda Smeets - zang
TTITLE3=St. Thomas
TTITLE4=How high the moon
TTITLE5=So what!
TTITLE6=Watermelon man
TTITLE7=Black coffee - mmv Linda Smeets - zang
EXTD=YEAR: 2005
EXTT0=
EXTT1=
EXTT2=
EXTT3=
EXTT4=
EXTT5=
EXTT6=
EXTT7=
PLAYORDER=
